<svg xmlns="http://www.w3.org/2000/svg" width="567.616px" height="549.283px" viewBox="-444.943 -224.51 567.616 549.283" enable-background="new -444.943 -224.51 567.616 549.283">
	<g transform="translate(-835 -4940)">
		<g transform="translate(-444.553 4538.727)">
			<path fill="#9C6639" d="M1234.307,638.16c1.259-1.313,58.972-41.227,95.544-65.037 c0,0,6.676-9.801,8.287-13.055c0,0,6.385,2.541,41.074,8.602c25.11,4.383,22.348,15.891-25.311,13.66l-72.053,70.229 C1281.849,652.558,1215.145,658.152,1234.307,638.16z"/>
			<path fill="#20120C" d="M1329.852,573.119l8.287-13.055l55.915,6.994c0,0,14.9,4.047,4.461,11.029 c-10.519,7.037-36.5,6.748-44.611,4.234c0,0,23.973,0.102,31.58-5.111C1385.484,577.21,1356.766,575.595,1329.852,573.119z"/>
			<path fill="#9C6639" d="M1117.614,665.287c1.054-1.475,52.335-48.9,85.049-77.494 c0,0,5.173-10.615,6.291-14.061c0,0,6.691,1.639,41.918,2.871c25.5,0.893,24.45,12.664-23.053,17l-61.034,79.408 C1166.784,673.011,1101.576,687.71,1117.614,665.287z"/>
			<path fill="#20120C" d="M1202.663,587.792l6.291-14.061l56.375-0.752c0,0,15.339,1.963,6.031,10.299 c-9.381,8.41-35.146,11.691-43.54,10.318c0,0,23.745-3.191,30.513-9.4C1258.332,584.205,1229.67,586.548,1202.663,587.792z"/>
			<path fill="#FAC32D" d="M1111.612,210.827c0,0,8.345,10.353,20.809,11.294s28.856-28.091,64.164-18.765 c35.307,9.326,83.114,59.991,70.899,100.08c-36.199,118.764-131.953,25.276-163.239-19.051 C1072.957,240.058,1111.612,210.827,1111.612,210.827z"/>
			<path fill="#E5AF9C" d="M1311.404,202.958c3.256-3.833,6.299-7.841,9.115-12.008 c2.029-2.817,0.618-3.516-1.443-3.107c-0.879,0.174-2.525,1.513-4.096,2.852c-1.043,0.886-2.195,1.634-3.43,2.226 c0.47-3.784,2.066-7.34,4.583-10.205c3.444-4.161,2.647-8.311-4.994-4.365c-12.131,6.263-6.346,17.29-11.634,21.5 c-4.64,3.689-17.715,8.254-17.715,8.254c-7.231,13.035,6.609,11.508,6.609,11.508S1303.999,209.351,1311.404,202.958z"/>
			<path fill="#E5AF9C" d="M862.566,404.132c-6.1,0.562-13.161,1.153-16.257,1.132 c-3.548-0.023-3.323-1.542-1.787-2.936c0.655-0.594,2.734-1.121,4.771-1.588c1.341-0.311,2.638-0.789,3.858-1.426 c-3.459-1.813-7.364-2.601-11.255-2.271c-5.5,0.318-11.5-4.801-3.165-7.1c14.988-4.133,22.145,2.799,28.737,2.08 c5.967-0.649,17.715-7.422,17.715-7.422c15.172,1.813,5.024,13.051,5.024,13.051C880.888,399.333,871.661,401.496,862.566,404.132 z"/>
			<path fill="#FAC32D" d="M1111.469,212.976c-4.95-2.613-15.732-4.17-22.021-3.448 c-11.199,1.284-19.338,6.849-15.306,27.479c5.682,29.07,30.53,24,41.318,13.164 C1124.246,241.348,1125.523,220.395,1111.469,212.976z"/>
			<path fill="#FAC32D" d="M1091.925,204.069c1.028,7.178,5.388,12.523,12.8,11.528 c10.246-1.375,16.9-9.376,15.876-16.554c-1.024-7.178-6.8-13.511-17.444-12.082 C1095.744,187.956,1090.337,192.989,1091.925,204.069z"/>
			<path fill="#E5AF9C" d="M1104.503,237.035c0,0-3.407-19.372-20.229-19.372c-12.75,0-15.6,14.287-14.059,29.676 s7.458,24.941,17.973,21.438c11.08-3.692,17.238-9.6,18.908-18.123c0,0,8.662-1.811,6.856-10.847 C1111.956,229.826,1104.503,237.035,1104.503,237.035z"/>
			<path fill="#E5AF9C" d="M1088.187,283.962c0,0,4.472-6.183,2.236-17.311l15.663-18.057 c0,0,2.863,27.331,12.126,31.659c0,0-5.572,21.157-16.433,23.011C1090.92,305.118,1090.105,291.689,1088.187,283.962z"/>
			<path fill="#D39784" d="M1075.88,238.441c0,0-2.125,5.2-4.221,7.007c-2.096,1.807,2.107,3.321,3.82,3.447 C1077.192,249.021,1075.88,238.441,1075.88,238.441z"/>
			<path fill="#FFFFFF" d="M1104.785,249.111c0.328,1.531,1.822,2.517,3.358,2.215 c1.521-0.251,2.548-1.687,2.297-3.207c-0.003-0.015-0.005-0.03-0.008-0.044c-0.328-1.531-1.823-2.518-3.36-2.216 c-1.52,0.251-2.547,1.688-2.295,3.207C1104.78,249.081,1104.782,249.096,1104.785,249.111z"/>
			<path fill="#D39784" d="M1090.628,267.434c0,0,7.36-4.164,9.81-7.358s1.01,6.937-0.107,8.972 c-1.383,2.523-5.672,6.279-9.699,8.237C1091.186,274.024,1091.185,270.694,1090.628,267.434z"/>
			<path fill="#8496BF" d="M878.307,382.492c0,0,96.988-51.601,129.294-70.029 c40.247-22.957,80.586-28.5,80.586-28.5s1.113,9.944,8.017,10.041c8.529,0.12,17.614-5.913,22.008-13.751 c0,0,27.851-14.892,84.521-41.636c40.446-19.087,78.781-42.553,78.781-42.553l19.577,30.247c0,0-50.767,42.814-70.7,66.509 c-34.9,41.477-10.813,107.809-15.211,138.813c0,0-89.228,39.939-200.2,24.288c0,0,0-39.949-5.964-63.049 c-4.408-17.074-32.344-10.38-118.8,16.655L878.307,382.492z"/>
			<path fill="#50689F" d="M1014.974,455.919c0,0,1.116-12.833,23.075-19.181 c30.488-8.811,160.46-30.115,177.128-5.107C1215.178,431.631,1153.834,469.951,1014.974,455.919z"/>
			<g transform="translate(1450.555 654.23)">
				<path fill="#1F3059" d="M-418.175-215.621c-17.406,45.26-43.587,199.4-12.087,256.3 c17.848,32.244,90.699,61.148,147.2-31.121l-28.735-30.707c-25.122,14.92-43.633,32.85-49.057,20.375 c-5.887-13.541,10.312-88.668,10.312-88.668c-0.588,229.658,134.387,167.869,229.417,56.623l-35.354-31.859 c-44.109,29.375-78.895,52.963-94.116,39.146c-14.424-13.096-1.435-104.31-28.038-207.832c0,0-23.324-4.533-76.072,2.474 C-376.332-228-397.601-222.882-418.175-215.621z"/>
			</g>
			<path fill="#E2D6CC" d="M1100.011,563.791l-6.468-43.021c0,0-17.848,11.516-28.953,99.031 c-5.811,45.795,1.983,71.779,25.109,83.678c14.264,7.51,31.408,7.049,45.251-1.213c-17.214-19.129-25.9-51.018-25.9-51.018 s-13.925,9.24-19.354,1.211C1083.683,643.564,1100.011,563.791,1100.011,563.791z"/>
			<path fill="#E2D6CC" d="M1267.479,680.496c0,0,14.452-27.301,23.179-36.896 c8.726-9.594,20.867-19.914,24.909-35.674l13.86,12.49C1329.427,620.416,1291.162,663.91,1267.479,680.496z"/>
		</g>
	</g>
</svg>
