<?xml version="1.0" encoding="utf-8"?>
<!-- Generator: Adobe Illustrator 16.0.3, SVG Export Plug-In . SVG Version: 6.00 Build 0)  -->
<!DOCTYPE svg PUBLIC "-//W3C//DTD SVG 1.1//EN" "http://www.w3.org/Graphics/SVG/1.1/DTD/svg11.dtd">
<svg version="1.1" id="android" xmlns="http://www.w3.org/2000/svg" xmlns:xlink="http://www.w3.org/1999/xlink" x="0px" y="0px"
	 width="49.149px" height="61.439px" viewBox="0 -0.079 49.149 61.439" enable-background="new 0 -0.079 49.149 61.439"
	 xml:space="preserve">
<path id="Path_1508" fill="#8496BF" d="M43.747,26.367H5.393C2.416,26.371,0.004,28.784,0,31.761v7.191
	c0,2.978,2.413,5.393,5.392,5.393c0.613,0,1.222-0.104,1.8-0.309v3.305c0,0.994,0.806,1.801,1.8,1.801l0,0h1.8v6.825
	c0,2.979,2.415,5.394,5.394,5.394s5.394-2.414,5.394-5.394v-6.832h5.993v6.832c0,2.979,2.415,5.394,5.394,5.394
	s5.394-2.414,5.394-5.394v-6.832h1.8c0.994,0,1.8-0.806,1.8-1.8l0,0v-3.298c2.808,0.993,5.889-0.478,6.882-3.284
	c0.205-0.578,0.31-1.187,0.31-1.8v-7.191C49.146,28.781,46.728,26.366,43.747,26.367z M5.393,40.75c-0.994,0-1.801-0.806-1.801-1.8
	l0,0v-7.191c0-0.994,0.807-1.8,1.801-1.8l0,0h1.8v8.989c0.001,0.994-0.804,1.801-1.798,1.802C5.394,40.75,5.393,40.75,5.393,40.75z
	 M17.978,55.967c0.001,0.994-0.805,1.801-1.799,1.802s-1.801-0.805-1.802-1.799c0,0,0-0.002,0-0.003v-6.832h3.601V55.967z
	 M34.758,55.967c0.001,0.994-0.804,1.801-1.798,1.802s-1.801-0.805-1.802-1.799c0,0,0-0.002,0-0.003v-6.832h3.6V55.967z
	 M38.358,45.54H10.787V29.967h27.566L38.358,45.54z M45.549,38.948c0,0.994-0.807,1.799-1.801,1.798
	c-0.993-0.001-1.798-0.806-1.799-1.798v-8.981h1.8c0.994,0,1.8,0.806,1.8,1.8l0,0V38.948z"/>
<path id="Path_1509" fill="#8496BF" d="M11.842,8.6c-2.239,2.844-3.455,6.359-3.451,9.979v2.4c0,0.994,0.806,1.8,1.8,1.8l0,0h28.762
	c0.994,0,1.8-0.806,1.8-1.8l0,0v-2.4c0.004-3.62-1.213-7.136-3.454-9.979l4.294-5.723c0.623-0.775,0.499-1.908-0.276-2.53
	c-0.774-0.623-1.908-0.499-2.53,0.276c-0.025,0.031-0.049,0.063-0.072,0.096l-3.967,5.289c-5.93-4.814-14.422-4.814-20.352,0
	l-3.968-5.289C9.873-0.106,8.755-0.327,7.929,0.227S6.884,1.898,7.437,2.724C7.472,2.777,7.51,2.828,7.551,2.876L11.842,8.6z
	 M37.155,18.579v0.6h-25.17v-0.6c0.062-6.95,5.746-12.535,12.696-12.473C31.545,6.167,37.093,11.716,37.155,18.579L37.155,18.579z"
	/>
<circle id="Ellipse_192" fill="#8496BF" cx="28.936" cy="12.034" r="1.929"/>
<circle id="Ellipse_193" fill="#8496BF" cx="19.934" cy="12.034" r="1.929"/>
</svg>
