<?xml version="1.0" encoding="utf-8"?>
<!-- Generator: Adobe Illustrator 16.0.3, SVG Export Plug-In . SVG Version: 6.00 Build 0)  -->
<!DOCTYPE svg PUBLIC "-//W3C//DTD SVG 1.1//EN" "http://www.w3.org/Graphics/SVG/1.1/DTD/svg11.dtd">
<svg version="1.1" id="Warstwa_1" xmlns="http://www.w3.org/2000/svg" xmlns:xlink="http://www.w3.org/1999/xlink" x="0px" y="0px"
	 width="51.438px" height="47.421px" viewBox="0 0 51.438 47.421" enable-background="new 0 0 51.438 47.421" xml:space="preserve">
<path id="settings" fill="#8496BF" d="M45.412,0H6.028C2.7,0.004,0.004,2.7,0,6.028v33.356c0.005,4.438,3.601,8.032,8.038,8.037
	H43.4c4.437-0.006,8.032-3.601,8.037-8.037c0-1.109-0.899-2.01-2.009-2.01c-1.11,0-2.01,0.9-2.01,2.01
	c-0.004,2.217-1.801,4.014-4.019,4.016H8.038c-2.219-0.002-4.018-1.801-4.02-4.02V12.157h43.4v17.18c0,1.109,0.899,2.01,2.01,2.01
	c1.109,0,2.009-0.9,2.009-2.01V6.028C51.434,2.701,48.739,0.005,45.412,0z M37.274,4.019c1.109,0,2.01,0.899,2.01,2.009
	c0,1.11-0.9,2.009-2.01,2.009s-2.009-0.899-2.009-2.009l0,0C35.267,4.919,36.165,4.021,37.274,4.019z M47.321,6.028
	c0,1.11-0.899,2.009-2.009,2.009s-2.009-0.899-2.009-2.009c0-1.109,0.899-2.009,2.009-2.009l0,0
	C46.421,4.021,47.32,4.919,47.321,6.028z M4.021,6.028C4.023,4.92,4.92,4.021,6.028,4.019h25.564
	c-0.473,1.334-0.46,2.793,0.036,4.119H4.019L4.021,6.028z M17.708,28.566l-1.877,1.523c-0.755,0.613-0.963,1.68-0.493,2.531
	l0.873,1.584c0.477,0.864,1.511,1.255,2.439,0.92l2.207-0.793c0.481,0.365,1.002,0.676,1.554,0.926l0.427,2.373
	c0.172,0.957,1.005,1.654,1.978,1.654h1.809c0.986-0.001,1.827-0.719,1.983-1.693l0.37-2.311c0.673-0.299,1.301-0.688,1.866-1.158
	l2.284,0.676c0.932,0.276,1.928-0.154,2.365-1.023l0.812-1.615c0.444-0.883,0.181-1.957-0.62-2.533l-1.934-1.394
	c0-0.101,0.006-0.2,0.006-0.3c0-0.124,0-0.248-0.009-0.371c0-0.043-0.005-0.086-0.008-0.129c-0.004-0.043,0-0.094-0.009-0.141
	l1.87-1.52c0.755-0.613,0.963-1.678,0.493-2.53l-0.921-1.671c-0.484-0.878-1.541-1.265-2.478-0.907l-2.169,0.828
	c-0.199-0.152-0.415-0.293-0.631-0.425l-0.015-0.009c-0.092-0.056-0.186-0.108-0.278-0.16l-0.083-0.046
	c-0.082-0.044-0.166-0.088-0.251-0.129l-0.125-0.06c-0.039-0.018-0.077-0.038-0.115-0.056l-0.43-2.377
	c-0.172-0.957-1.005-1.653-1.978-1.653h-1.907c-1.002,0-1.851,0.738-1.99,1.731l-0.322,2.3c-0.598,0.271-1.16,0.615-1.675,1.023
	l-2.344-0.693c-0.933-0.276-1.929,0.155-2.365,1.024l-0.856,1.706c-0.45,0.895-0.172,1.985,0.652,2.555l1.879,1.3
	c-0.007,0.136-0.011,0.272-0.011,0.411s0,0.247,0.009,0.37c0,0.043,0.005,0.085,0.009,0.128
	C17.703,28.476,17.7,28.521,17.708,28.566z M21.708,27.707v-0.027c0-0.067,0.01-0.133,0.017-0.2c0-0.005,0-0.011,0-0.017
	c0.009-0.071,0.019-0.142,0.031-0.213v-0.01c0.012-0.071,0.026-0.142,0.042-0.212c0.167-0.717,0.527-1.374,1.042-1.899l0.045-0.047
	c0.039-0.039,0.08-0.077,0.121-0.115l0.031-0.027c0.082-0.074,0.168-0.145,0.257-0.212l0.023-0.019c0.05-0.036,0.1-0.072,0.15-0.106
	l0,0c0.1-0.067,0.2-0.128,0.3-0.187l0.038-0.021c0.05-0.027,0.101-0.054,0.152-0.078l0.053-0.024
	c0.081-0.037,0.163-0.072,0.247-0.104l0.1-0.039l0.12-0.041c0.057-0.018,0.113-0.035,0.17-0.05c0.699-0.191,1.436-0.189,2.133,0.006
	c0.057,0.016,0.111,0.032,0.168,0.05l0.1,0.033c0.049,0.017,0.1,0.036,0.145,0.055s0.09,0.036,0.134,0.055
	c0.044,0.019,0.1,0.043,0.146,0.068l0.1,0.053c0.039,0.02,0.078,0.041,0.116,0.063l0.096,0.056c0.061,0.036,0.12,0.074,0.18,0.115
	l0.083,0.059c0.04,0.029,0.081,0.061,0.121,0.092l0.074,0.058c0.059,0.048,0.116,0.099,0.173,0.15l0.051,0.049
	c0.045,0.042,0.088,0.086,0.131,0.13c0.504,0.514,0.86,1.152,1.033,1.85c0.013,0.053,0.024,0.107,0.035,0.16
	c0,0.025,0.009,0.051,0.013,0.075c0.009,0.052,0.017,0.101,0.024,0.157l0.009,0.074c0.006,0.057,0.011,0.111,0.015,0.166
	c0,0.023,0,0.045,0.005,0.066c0,0.077,0.007,0.154,0.007,0.231c0,0.139-0.007,0.278-0.021,0.416v0.019
	c-0.007,0.061-0.015,0.123-0.024,0.186c0,0.023-0.008,0.046-0.012,0.068c-0.007,0.043-0.015,0.088-0.024,0.131
	c-0.142,0.678-0.456,1.309-0.914,1.83c-0.059,0.065-0.118,0.131-0.18,0.192l-0.042,0.04c-0.048,0.047-0.097,0.094-0.147,0.137
	l-0.081,0.07c-0.057,0.047-0.113,0.091-0.171,0.135c-0.036,0.027-0.073,0.053-0.109,0.078l-0.1,0.066
	c-0.06,0.039-0.12,0.076-0.183,0.111c-0.037,0.022-0.075,0.045-0.112,0.064c-0.038,0.02-0.081,0.042-0.122,0.063
	c-0.041,0.021-0.09,0.043-0.135,0.063s-0.094,0.042-0.142,0.061c-0.048,0.02-0.116,0.047-0.175,0.066l-0.086,0.029
	c-0.082,0.027-0.165,0.051-0.249,0.072c-0.679,0.172-1.391,0.164-2.065-0.025c-0.057-0.016-0.112-0.032-0.168-0.051l-0.1-0.033
	c-0.049-0.016-0.101-0.035-0.146-0.055c-0.045-0.019-0.1-0.041-0.15-0.063c-0.052-0.022-0.084-0.038-0.126-0.058
	c-0.042-0.021-0.075-0.039-0.113-0.059l-0.101-0.057c-0.053-0.031-0.105-0.063-0.156-0.096c-0.052-0.033-0.082-0.051-0.121-0.078
	l-0.101-0.071c-0.033-0.024-0.067-0.05-0.1-0.077s-0.06-0.046-0.089-0.07c-0.056-0.045-0.109-0.092-0.162-0.141l-0.074-0.07
	c-0.037-0.037-0.074-0.074-0.108-0.111c-0.497-0.514-0.846-1.152-1.013-1.848c-0.013-0.057-0.025-0.111-0.037-0.169
	c0-0.022-0.008-0.046-0.012-0.069c-0.009-0.053-0.018-0.107-0.024-0.162c0-0.023-0.007-0.047-0.01-0.07
	c-0.006-0.057-0.011-0.111-0.016-0.169c0-0.021,0-0.042,0-0.063c0-0.076-0.007-0.154-0.007-0.23c0-0.077-0.009-0.148-0.001-0.223
	V27.707z"/>
</svg>
