<?xml version="1.0" encoding="utf-8"?>
<!-- Generator: Adobe Illustrator 16.0.3, SVG Export Plug-In . SVG Version: 6.00 Build 0)  -->
<!DOCTYPE svg PUBLIC "-//W3C//DTD SVG 1.1//EN" "http://www.w3.org/Graphics/SVG/1.1/DTD/svg11.dtd">
<svg version="1.1" id="Warstwa_1" xmlns="http://www.w3.org/2000/svg" xmlns:xlink="http://www.w3.org/1999/xlink" x="0px" y="0px"
	 width="48.862px" height="48.763px" viewBox="-0.001 -0.001 48.862 48.763" enable-background="new -0.001 -0.001 48.862 48.763"
	 xml:space="preserve">
<path id="vector" fill="#8496BF" d="M48.86,24.335c0.001,1.845-1.493,3.341-3.338,3.342s-3.341-1.494-3.342-3.339
	c0-0.976,0.426-1.902,1.167-2.538c-1.152-8.496-7.818-15.188-16.311-16.373c-1.152,1.44-3.253,1.674-4.692,0.521
	c-0.192-0.153-0.367-0.328-0.521-0.521C13.331,6.612,6.665,13.303,5.513,21.8c1.4,1.2,1.563,3.309,0.363,4.708
	c-1.2,1.4-3.308,1.563-4.708,0.363c-1.4-1.199-1.563-3.308-0.363-4.708c0.257-0.299,0.563-0.551,0.908-0.743
	c0.632-5.03,2.928-9.705,6.521-13.28c1.077-1.078,2.257-2.046,3.523-2.892H6.08C5.026,6.761,2.945,7.135,1.431,6.081
	c-1.515-1.055-1.887-3.136-0.833-4.649c1.054-1.515,3.136-1.887,4.649-0.833C5.573,0.825,5.854,1.106,6.08,1.431H21.69
	c1.054-1.514,3.136-1.886,4.648-0.832c0.324,0.226,0.606,0.507,0.832,0.832H42.78c1.055-1.515,3.136-1.887,4.65-0.833
	c1.514,1.054,1.886,3.136,0.832,4.649s-3.136,1.887-4.649,0.833c-0.324-0.227-0.606-0.508-0.833-0.833H37.1
	c1.267,0.846,2.446,1.813,3.523,2.892c3.595,3.574,5.892,8.249,6.524,13.279C48.205,22.009,48.86,23.125,48.86,24.335z
	 M34.134,25.619c1.252,2.348,1.17,5.182-0.214,7.454c-0.551,0.898-1.726,1.182-2.624,0.631c-0.899-0.55-1.182-1.725-0.631-2.624
	c0.679-1.113,0.72-2.502,0.107-3.654l-4.623-8.5V26.3c0.485,0.825,0.809,1.734,0.953,2.68c0,1.581-1.281,2.863-2.862,2.863
	s-2.863-1.281-2.863-2.862c0-0.001,0-0.001,0-0.001c0.146-0.948,0.47-1.859,0.956-2.686v-6.95L17.9,27.471
	c-0.609,1.146-0.571,2.529,0.101,3.642l3.769,6.009h6.381c1.055,0,1.909,0.854,1.909,1.908v5.28c0,2.455-1.988,4.446-4.442,4.452
	h-2.554h-0.005c-2.455,0-4.446-1.989-4.449-4.444v-5.044l-3.853-6.145l-0.012-0.02c-1.38-2.272-1.458-5.104-0.205-7.449l0.006-0.011
	l8.136-14.922c0.334-0.614,0.978-0.995,1.676-0.995l0,0c0.7,0.001,1.344,0.385,1.677,1l8.1,14.878L34.134,25.619z M26.242,40.939
	h-3.815v3.379c0.002,0.348,0.283,0.628,0.631,0.629l0,0h2.553c0.349-0.001,0.632-0.283,0.632-0.632V40.939z"/>
</svg>
