<?xml version="1.0" encoding="utf-8"?>
<!-- Generator: Adobe Illustrator 16.0.3, SVG Export Plug-In . SVG Version: 6.00 Build 0)  -->
<!DOCTYPE svg PUBLIC "-//W3C//DTD SVG 1.1//EN" "http://www.w3.org/Graphics/SVG/1.1/DTD/svg11.dtd">
<svg version="1.1" id="Warstwa_1" xmlns="http://www.w3.org/2000/svg" xmlns:xlink="http://www.w3.org/1999/xlink" x="0px" y="0px"
	 width="51.44px" height="51.439px" viewBox="0 0 51.44 51.439" enable-background="new 0 0 51.44 51.439" xml:space="preserve">
<path id="online-shopping" fill="#8496BF" d="M45.412,0H6.028C2.7,0.004,0.004,2.7,0,6.028V43.4c0.004,4.438,3.6,8.035,8.037,8.04
	H43.4c4.439-0.004,8.036-3.601,8.04-8.04c0-1.109-0.899-2.009-2.009-2.009c-1.11,0-2.01,0.899-2.01,2.009
	C47.42,45.62,45.62,47.42,43.4,47.421H8.037c-2.22-0.003-4.018-1.802-4.019-4.021V24.846c2.524,1.115,5.474,0.573,7.436-1.367
	c2.628,2.598,6.861,2.585,9.474-0.028c2.655,2.625,6.93,2.625,9.585,0c2.612,2.613,6.846,2.626,9.474,0.028
	c1.963,1.94,4.912,2.482,7.436,1.367v8.51c0,1.11,0.899,2.01,2.01,2.01c1.109,0,2.009-0.899,2.009-2.01V6.028
	C51.437,2.7,48.74,0.003,45.412,0z M37.274,4.019c1.109,0,2.01,0.899,2.01,2.009c0,1.11-0.9,2.01-2.01,2.01s-2.009-0.899-2.009-2.01
	l0,0C35.267,4.919,36.165,4.021,37.274,4.019z M47.321,6.028c0,1.11-0.899,2.01-2.009,2.01s-2.009-0.899-2.009-2.01
	c0-1.109,0.899-2.009,2.009-2.009l0,0C46.421,4.021,47.32,4.919,47.321,6.028z M6.028,4.019h25.563
	c-0.473,1.335-0.46,2.793,0.036,4.119H4.019v-2.11C4.021,4.919,4.919,4.021,6.028,4.019z M44.709,21.4
	c-1.496-0.004-2.708-1.217-2.709-2.713v-0.6c0-1.11-0.9-2.01-2.01-2.01s-2.01,0.899-2.01,2.01v0.6
	c0.029,1.498-1.162,2.736-2.66,2.765c-1.498,0.029-2.735-1.162-2.765-2.66c-0.001-0.035-0.001-0.069,0-0.104v-0.7
	c0-1.109-0.899-2.009-2.01-2.009c-1.109,0-2.009,0.899-2.009,2.009v0.601c0,1.554-1.259,2.813-2.813,2.813
	c-1.554,0.001-2.813-1.258-2.813-2.812c0-0.001,0-0.001,0-0.002v-0.5c0-1.11-0.9-2.01-2.01-2.01c-1.11,0-2.01,0.899-2.01,2.01v0.6
	c0.029,1.498-1.162,2.736-2.66,2.765c-1.498,0.029-2.736-1.162-2.765-2.66c-0.001-0.035-0.001-0.069,0-0.104v-0.6
	c0-1.11-0.899-2.01-2.01-2.01c-1.109,0-2.009,0.899-2.009,2.01v0.6c-0.029,1.498-1.267,2.689-2.765,2.661
	c-1.458-0.028-2.633-1.203-2.661-2.661v-6.529h43.4v6.529C47.421,20.185,46.207,21.399,44.709,21.4z"/>
</svg>
