<?xml version="1.0" encoding="utf-8"?>
<!-- Generator: Adobe Illustrator 16.0.3, SVG Export Plug-In . SVG Version: 6.00 Build 0)  -->
<!DOCTYPE svg PUBLIC "-//W3C//DTD SVG 1.1//EN" "http://www.w3.org/Graphics/SVG/1.1/DTD/svg11.dtd">
<svg version="1.1" id="Warstwa_1" xmlns="http://www.w3.org/2000/svg" xmlns:xlink="http://www.w3.org/1999/xlink" x="0px" y="0px"
	 width="45.121px" height="52.046px" viewBox="0.828 9.238 45.121 52.046" enable-background="new 0.828 9.238 45.121 52.046"
	 xml:space="preserve">
<g id="Group_5787" transform="translate(2.828 2.828)">
	<path fill="#8496BF" d="M8.41,43.12c-0.512,0-1.024-0.195-1.414-0.586l-8.41-8.41C-1.789,33.749-2,33.241-2,32.71
		s0.211-1.039,0.586-1.414L22.888,6.995c0.375-0.375,0.884-0.586,1.414-0.586h16.819c0.809,0,1.538,0.487,1.848,1.235
		c0.31,0.747,0.139,1.607-0.434,2.179L9.824,42.535C9.434,42.925,8.922,43.12,8.41,43.12z M2.828,32.71l5.582,5.582L36.293,10.41
		H25.13L2.828,32.71z"/>
	<path fill="#8496BF" d="M20.787,55.67L20.787,55.67c-0.53,0-1.039-0.211-1.414-0.586l-8.409-8.41c-0.781-0.781-0.781-2.047,0-2.828
		l11.287-11.287c0.375-0.375,0.884-0.586,1.414-0.586h16.819c0.809,0,1.538,0.487,1.848,1.234c0.31,0.748,0.139,1.607-0.434,2.18
		L22.201,55.084C21.826,55.459,21.317,55.67,20.787,55.67z M15.206,45.26l5.581,5.582l14.869-14.869H24.493L15.206,45.26z"/>
	<path fill="#8496BF" d="M23.669,58.455c-0.53,0-1.039-0.211-1.414-0.586l-2.829-2.828c-0.375-0.375-0.586-0.884-0.586-1.414
		s0.21-1.039,0.586-1.414l8.41-8.41c0.781-0.781,2.047-0.781,2.828,0l11.234,11.234c0.572,0.572,0.743,1.432,0.434,2.18
		c-0.31,0.747-1.038,1.234-1.848,1.234L23.669,58.455L23.669,58.455z M23.669,53.627l0.828,0.828l11.16-0.003l-6.407-6.407
		L23.669,53.627z"/>
</g>
</svg>
