<?xml version="1.0" encoding="utf-8"?>
<!-- Generator: Adobe Illustrator 16.0.3, SVG Export Plug-In . SVG Version: 6.00 Build 0)  -->
<!DOCTYPE svg PUBLIC "-//W3C//DTD SVG 1.1//EN" "http://www.w3.org/Graphics/SVG/1.1/DTD/svg11.dtd">
<svg version="1.1" id="Warstwa_1" xmlns="http://www.w3.org/2000/svg" xmlns:xlink="http://www.w3.org/1999/xlink" x="0px" y="0px"
	 width="45.378px" height="55.042px" viewBox="0.053 0 45.378 55.042" enable-background="new 0.053 0 45.378 55.042"
	 xml:space="preserve">
<g id="apple-logo" transform="translate(0.802 0.754)">
	<g>
		<path id="Path_1510_1_" fill="#8496BF" d="M21.208,14.165c0.085,0,0.169,0,0.253,0l0,0c3.235-0.134,6.246-1.696,8.219-4.265
			c2.023-2.46,2.962-5.636,2.6-8.8C32.181,0.432,31.584-0.048,30.91,0c-3.219,0.36-6.176,1.948-8.254,4.433
			c-2.099,2.371-3.073,5.531-2.676,8.672C20.088,13.704,20.6,14.145,21.208,14.165z M24.65,6.073
			c1.356-1.574,3.146-2.713,5.147-3.273c-0.145,2.013-0.896,3.936-2.154,5.514c-1.297,1.66-3.15,2.794-5.218,3.194
			C22.576,9.507,23.354,7.605,24.65,6.073z"/>
		<path fill="#8496BF" d="M21.476,14.915h-0.269c-0.979-0.031-1.795-0.736-1.965-1.676c-0.431-3.395,0.611-6.771,2.852-9.303
			c2.198-2.629,5.305-4.298,8.732-4.681l0.177-0.008c1.005,0,1.872,0.75,2.018,1.745c0.386,3.37-0.622,6.783-2.763,9.385
			c-2.099,2.732-5.299,4.394-8.767,4.538L21.476,14.915z M31.003,0.746c-3.052,0.339-5.809,1.82-7.772,4.167
			c-1.969,2.225-2.877,5.17-2.507,8.097c0.039,0.21,0.255,0.396,0.507,0.405l0.212,0c3.017-0.129,5.801-1.577,7.641-3.972
			c1.899-2.31,2.786-5.313,2.449-8.258C31.499,0.945,31.269,0.746,31.003,0.746z M21.604,12.431l0.073-0.979
			c0.164-2.173,0.993-4.201,2.4-5.863c1.462-1.697,3.368-2.909,5.518-3.511l1.026-0.288l-0.076,1.063
			c-0.156,2.175-0.957,4.225-2.316,5.928c-1.403,1.796-3.415,3.028-5.661,3.463L21.604,12.431z M28.893,3.904
			c-1.412,0.583-2.667,1.489-3.675,2.659c-0.965,1.14-1.612,2.485-1.9,3.936c1.47-0.496,2.771-1.412,3.734-2.646
			C27.981,6.688,28.606,5.342,28.893,3.904z"/>
	</g>
	<g>
		<path id="Path_1511_1_" fill="#8496BF" d="M43.781,38.933c-0.137-0.329-0.402-0.587-0.735-0.713
			c-4.761-1.842-7.188-7.141-5.472-11.948c0.759-2.096,2.268-3.836,4.234-4.885c0.624-0.344,0.851-1.129,0.507-1.752
			c-0.036-0.064-0.077-0.126-0.123-0.184c-2.438-3.229-6.194-5.197-10.238-5.364c-2.037,0.022-4.05,0.45-5.921,1.258
			c-1.029,0.471-2.138,0.745-3.268,0.809c-1.283-0.076-2.543-0.375-3.723-0.884c-1.747-0.724-3.61-1.125-5.5-1.183
			c-4.228,0-8.513,2.557-11.184,6.675c-1.057,1.718-1.757,3.631-2.058,5.625c-1.067,6.265,0.741,13.73,4.837,19.971
			c2.323,3.531,5.25,7.146,9.345,7.181h0.084c1.381-0.025,2.737-0.37,3.963-1.008c1.326-0.681,2.797-1.033,4.287-1.029h0.066
			c1.454-0.014,2.89,0.335,4.177,1.013c1.206,0.645,2.547,0.992,3.914,1.016h0.078c4.013-0.034,7.053-3.837,9.5-7.557
			c1.26-1.9,2.337-3.916,3.216-6.021C43.913,39.629,43.917,39.26,43.781,38.933z M38.392,44.561
			c-1.949,2.963-4.547,6.367-7.364,6.391h-0.055c-0.995-0.029-1.969-0.297-2.839-0.78c-1.625-0.832-3.428-1.261-5.253-1.247h-0.08
			c-1.849-0.001-3.672,0.428-5.326,1.252c-0.896,0.484-1.893,0.753-2.911,0.784h-0.06c-2.9-0.024-5.378-3.229-7.212-6.018
			c-3.746-5.708-5.41-12.482-4.45-18.118c0.244-1.65,0.816-3.235,1.684-4.66c2.2-3.39,5.654-5.5,9.018-5.5
			c1.592,0.061,3.159,0.41,4.627,1.032c1.457,0.615,3.013,0.966,4.593,1.036c1.443-0.057,2.863-0.389,4.183-0.978
			c1.58-0.693,3.281-1.063,5.006-1.091c2.765,0.109,5.375,1.303,7.267,3.322c-1.873,1.35-3.292,3.237-4.069,5.412
			c-2.011,5.637,0.435,11.895,5.734,14.675C40.181,41.638,39.348,43.14,38.392,44.561z"/>
		<path fill="#8496BF" d="M14.574,54.289h-0.091c-4.454-0.038-7.54-3.822-9.971-7.519c-4.198-6.396-6.048-14.063-4.95-20.509
			c0.315-2.09,1.042-4.078,2.158-5.892c2.816-4.343,7.343-7.032,11.822-7.032c2.01,0.062,3.95,0.479,5.787,1.24
			c1.113,0.48,2.28,0.758,3.479,0.829c0.956-0.06,1.965-0.31,2.912-0.743c1.987-0.859,4.076-1.303,6.225-1.326
			c4.323,0.178,8.262,2.241,10.845,5.662c0.059,0.074,0.123,0.169,0.179,0.269c0.546,0.989,0.186,2.232-0.799,2.776
			c-1.815,0.968-3.194,2.558-3.892,4.483c-1.59,4.455,0.622,9.285,5.037,10.993c0.519,0.196,0.942,0.606,1.157,1.124
			c0.215,0.515,0.208,1.103-0.021,1.614c-0.887,2.124-1.991,4.192-3.275,6.129c-2.553,3.881-5.753,7.855-10.118,7.893
			c-1.577-0.025-3.049-0.407-4.353-1.104c-1.147-0.604-2.442-0.924-3.741-0.924h-0.15c-1.381,0-2.736,0.327-3.943,0.946
			c-1.317,0.686-2.802,1.063-4.292,1.091H14.574z M13.52,14.836c-3.954,0-7.998,2.427-10.531,6.334
			c-1,1.626-1.658,3.424-1.945,5.329c-1.039,6.096,0.728,13.36,4.722,19.448c2.214,3.364,4.982,6.81,8.724,6.842l0.078,0.75
			l-0.014-0.75c1.259-0.023,2.514-0.342,3.63-0.923c1.421-0.729,3.014-1.114,4.609-1.114h0.173c1.542,0,3.078,0.38,4.444,1.099
			c1.099,0.588,2.335,0.908,3.577,0.93c3.719-0.031,6.602-3.667,8.938-7.219c1.233-1.86,2.293-3.844,3.15-5.897
			c0.067-0.151,0.069-0.307,0.013-0.442c-0.058-0.139-0.17-0.248-0.309-0.301C37.595,36.915,35,31.249,36.868,26.02
			c0.824-2.278,2.453-4.157,4.588-5.294c0.251-0.139,0.347-0.468,0.202-0.729l-0.064-0.094c-2.312-3.062-5.837-4.909-9.671-5.067
			c-1.908,0.021-3.803,0.424-5.592,1.197c-1.104,0.504-2.293,0.799-3.522,0.87c-1.461-0.082-2.799-0.399-4.063-0.945
			C17.086,15.271,15.325,14.892,13.52,14.836z M14.587,51.711c-3.343-0.027-5.984-3.411-7.921-6.355
			c-3.849-5.864-5.554-12.838-4.563-18.656c0.258-1.743,0.858-3.405,1.782-4.924c2.351-3.622,6.047-5.86,9.658-5.86l0.028,0
			c1.689,0.064,3.334,0.432,4.891,1.091c1.378,0.582,2.836,0.911,4.333,0.978c1.292-0.054,2.606-0.361,3.844-0.914
			c1.685-0.738,3.466-1.126,5.3-1.156c3.021,0.119,5.786,1.382,7.826,3.56l0.583,0.623l-0.692,0.499
			c-1.758,1.267-3.072,3.015-3.802,5.056c-1.873,5.252,0.438,11.167,5.377,13.758l0.625,0.328l-0.289,0.644
			c-0.72,1.602-1.579,3.148-2.554,4.599c-2.047,3.112-4.809,6.695-7.98,6.722c-1.193-0.033-2.293-0.335-3.264-0.875
			c-1.466-0.75-3.135-1.152-4.804-1.152h-0.165c-1.727,0-3.451,0.405-4.992,1.173C16.837,51.374,15.715,51.676,14.587,51.711z
			 M13.529,17.415c-3.104,0.006-6.312,1.981-8.375,5.158c-0.808,1.328-1.34,2.802-1.571,4.362c-0.931,5.47,0.69,12.042,4.335,17.597
			c1.732,2.632,4.046,5.657,6.591,5.679c0.927-0.027,1.818-0.268,2.608-0.694c1.769-0.882,3.725-1.342,5.677-1.342h0.171
			c1.905,0,3.811,0.46,5.51,1.329c0.784,0.436,1.647,0.673,2.52,0.698c2.516-0.021,5.067-3.464,6.77-6.053
			c0.805-1.196,1.524-2.457,2.146-3.761c-5.165-3.094-7.512-9.515-5.469-15.241c0.732-2.05,1.982-3.841,3.639-5.227
			c-1.694-1.532-3.853-2.415-6.159-2.506c-1.593,0.026-3.179,0.372-4.676,1.028c-1.407,0.628-2.907,0.979-4.454,1.04
			c-1.738-0.075-3.371-0.443-4.914-1.095C16.494,17.801,15.03,17.474,13.529,17.415z"/>
	</g>
</g>
</svg>
