<?xml version="1.0" encoding="utf-8"?>
<!-- Generator: Adobe Illustrator 16.0.3, SVG Export Plug-In . SVG Version: 6.00 Build 0)  -->
<!DOCTYPE svg PUBLIC "-//W3C//DTD SVG 1.1//EN" "http://www.w3.org/Graphics/SVG/1.1/DTD/svg11.dtd">
<svg version="1.1" id="Warstwa_1" xmlns="http://www.w3.org/2000/svg" xmlns:xlink="http://www.w3.org/1999/xlink" x="0px" y="0px"
	 width="51.437px" height="47.421px" viewBox="0 0 51.437 47.421" enable-background="new 0 0 51.437 47.421" xml:space="preserve">
<path id="website-2" fill="#8496BF" d="M11.956,16.175c-2.219,0.002-4.018,1.8-4.02,4.019v15.171c0.002,2.219,1.801,4.018,4.02,4.02
	h7.636c2.219-0.002,4.017-1.801,4.019-4.02V20.194c-0.002-2.219-1.8-4.017-4.019-4.019H11.956z M19.592,35.365h-7.636V20.194h7.636
	V35.365z M43.3,27.83c0,1.109-0.899,2.01-2.009,2.01H29.638c-1.109,0-2.01-0.9-2.01-2.01s0.9-2.01,2.01-2.01h11.655
	C42.403,25.822,43.301,26.72,43.3,27.83z M43.3,35.466c0,1.109-0.899,2.009-2.009,2.009H29.638c-1.109,0-2.01-0.899-2.01-2.01
	s0.9-2.009,2.01-2.009h11.655c1.108,0,2.007,0.9,2.007,2.008V35.466z M43.3,20.195c-0.002,1.107-0.899,2.004-2.007,2.005H29.638
	c-1.109,0-2.01-0.9-2.01-2.01s0.9-2.009,2.01-2.009h11.655c1.109,0.001,2.008,0.901,2.007,2.011
	C43.3,20.193,43.3,20.193,43.3,20.195L43.3,20.195z M45.412,0H6.028C2.7,0.004,0.004,2.7,0,6.028v33.356
	c0.004,4.438,3.6,8.033,8.037,8.037H43.4c4.438-0.004,8.033-3.6,8.037-8.037c0-1.109-0.899-2.01-2.009-2.01
	c-1.11,0-2.01,0.9-2.01,2.01c-0.004,2.217-1.801,4.014-4.019,4.016H8.037c-2.219-0.002-4.018-1.801-4.02-4.02V12.157h43.4v17.18
	c0,1.109,0.899,2.01,2.01,2.01c1.109,0,2.009-0.9,2.009-2.01V6.028C51.433,2.702,48.739,0.005,45.412,0z M37.274,4.019
	c1.109,0,2.01,0.899,2.01,2.009c0,1.11-0.9,2.009-2.01,2.009s-2.009-0.899-2.009-2.009l0,0C35.267,4.919,36.165,4.021,37.274,4.019z
	 M47.321,6.028c0,1.11-0.899,2.009-2.009,2.009s-2.009-0.899-2.009-2.009c0-1.109,0.899-2.009,2.009-2.009l0,0
	C46.421,4.021,47.32,4.919,47.321,6.028z M4.021,6.028C4.023,4.92,4.92,4.021,6.028,4.019h25.564
	c-0.473,1.334-0.46,2.793,0.036,4.119H4.019L4.021,6.028z"/>
</svg>
